<svg id="Capa_1" data-name="Capa 1" xmlns="http://www.w3.org/2000/svg" viewBox="0 0 17.07 11.32"><defs><style>.cls-1{fill:#009640;}</style></defs><path class="cls-1" d="M15.8,7.47c-3.07,0-5.58,1.69-5.58,3.77,0,1.8,1.86,3.3,4.34,3.68a6,6,0,0,0,1,.09h.19a5.53,5.53,0,0,0,.71,0h0c2.72-.25,4.82-1.83,4.82-3.74C21.38,9.16,18.88,7.47,15.8,7.47Zm0,7.05c-2.8,0-5.08-1.47-5.08-3.28S13,8,15.8,8s5.09,1.48,5.09,3.27S18.61,14.52,15.8,14.52Z" transform="translate(-7.28 -7.47)"/><path class="cls-1" d="M20.42,11.71a2.88,2.88,0,0,1-.17.52A3.92,3.92,0,0,1,17.45,14l-.15,0v-.14c0-.09,0-.85,0-.85V12.9h.12a3.18,3.18,0,0,0,1.79-.6,1.39,1.39,0,0,0,.46-.53,1.25,1.25,0,0,0,0-1A1.53,1.53,0,0,0,19,10a2.14,2.14,0,0,0-1-.38h-.17l-3.29,3.11H15L18,10H18a1.38,1.38,0,0,1,1,.37,1.09,1.09,0,0,1,.39.86A1.23,1.23,0,0,1,19,12a2.9,2.9,0,0,1-2.14.72V14.1l-.11,0h-.51V14c0-.07,0-.54,0-.9v-.37l0,0,1.13-1.06,0,0h.05a.41.41,0,0,0,.16,0,.36.36,0,0,0,.25-.23.3.3,0,0,0-.34-.35.3.3,0,0,0-.2.06.34.34,0,0,0-.13.2l0,.12,0,0c-.42.39-.82.79-1.24,1.17v1.58h-.11l-.41,0A5.47,5.47,0,0,1,12,13a2.17,2.17,0,0,1-.81-2c.21-1.4,1.72-2.28,3-2.51l.14,0,0,1.1h-.16a2.65,2.65,0,0,0-1.82.75,1.57,1.57,0,0,0-.49,1.24,1.22,1.22,0,0,0,.35.77,2.25,2.25,0,0,0,1.49.58l3.42-3.21h-.4l-3,2.81h0a1.59,1.59,0,0,1-1.16-.55,1,1,0,0,1-.23-.89,1.45,1.45,0,0,1,1.05-1,3.09,3.09,0,0,1,1.34-.15c0-.21,0-1.42,0-1.44V8.28h.59V9.81l0,0c-.19.17-.88.8-1,1l0,0h-.06a.39.39,0,0,0-.26,0,.33.33,0,0,0-.16.29.34.34,0,0,0,.2.27.44.44,0,0,0,.39,0,.51.51,0,0,0,.16-.28v0l0,0,1.21-1.22V8.34h.06v0a6.7,6.7,0,0,1,2.42.35C19.49,9.13,20.73,10.26,20.42,11.71Z" transform="translate(-7.28 -7.47)"/><path class="cls-1" d="M9.64,18.15H8.47v-.52l-.39-.33V16.7H9.63Zm-.92-.26h.67V17H8.32v.22l.39.33v.39Z" transform="translate(-7.28 -7.47)"/><path class="cls-1" d="M11.63,17.61h0Z" transform="translate(-7.28 -7.47)"/><path class="cls-1" d="M11.24,17.25v0a.06.06,0,0,1,0,0Z" transform="translate(-7.28 -7.47)"/><path class="cls-1" d="M11.63,17.61h0Z" transform="translate(-7.28 -7.47)"/><path class="cls-1" d="M13.49,16.51v.1A.38.38,0,0,1,13.49,16.51Z" transform="translate(-7.28 -7.47)"/><path class="cls-1" d="M19.14,17.91h-.6v-.46l-.38-.31v-.77l0,0a.56.56,0,0,0-.52-.21.57.57,0,0,0-.27.13l-.09-.07a.4.4,0,0,0-.21-.07l-2.53,0H14a.5.5,0,0,0-.35.11l0,0a.48.48,0,0,0-.37-.13H11.56a.58.58,0,0,0-.23,0,.57.57,0,0,0-.21.14.4.4,0,0,0-.08.18.48.48,0,0,0-.21-.3.55.55,0,0,0-.39-.06.56.56,0,0,0-.29.14.4.4,0,0,0-.33-.12c-1,0-1.69,0-1.94,0a.75.75,0,0,0-.38.13.58.58,0,0,0-.21.27v1.78a.53.53,0,0,0,.08.22.57.57,0,0,0,.33.27H9.9a.4.4,0,0,0,.21-.09l.05-.06a.76.76,0,0,0,.51.18h.06a.77.77,0,0,0,.33-.06.55.55,0,0,0,.14-.09l0,0a.34.34,0,0,0,.2.06h0l2,0a.26.26,0,0,0,.15-.07h0a1.1,1.1,0,0,0,.22.11,1,1,0,0,0,.74,0,1,1,0,0,0,.25-.19l0-.72h.47v.37a.43.43,0,0,0,.08.35.44.44,0,0,0,.35.18H17.2a.33.33,0,0,0,.15-.07l0,0a.38.38,0,0,0,.21.1l1.55,0h0a.41.41,0,0,0,.31-.14.43.43,0,0,0,.12-.32A.43.43,0,0,0,19.14,17.91ZM10,18.35a.2.2,0,0,1-.06.13l-.08,0H7.75a.38.38,0,0,1-.18-.15.34.34,0,0,1,0-.12V16.57a.31.31,0,0,1,.12-.15.35.35,0,0,1,.24-.08c.24,0,1,0,1.94,0a.18.18,0,0,1,.16,0,.21.21,0,0,1,0,.11Zm1.06.08a.37.37,0,0,1-.12.07.74.74,0,0,1-.24.05.61.61,0,0,1-.25,0,.69.69,0,0,1-.2-.14V16.51a.09.09,0,0,0,0-.05.37.37,0,0,1,.22-.14.28.28,0,0,1,.21,0,.25.25,0,0,1,.12.2v.64l.28.45Zm2.41-1.94s0,0,0,0v.37a.15.15,0,0,1-.05.11.16.16,0,0,1-.11,0h-.1c-.05,0-.08,0-.1,0a.09.09,0,0,1,0-.06l0-.24H11.71l0,.57h1.63a.19.19,0,0,1,.12,0l.05.06v.92a.19.19,0,0,1-.05.15l0,0h-2a.1.1,0,0,1-.07,0,.12.12,0,0,1,0-.06h0v-.46h0a.24.24,0,0,1,.07-.17.17.17,0,0,1,.14-.06.2.2,0,0,1,.14.07.23.23,0,0,1,.05.14.67.67,0,0,1,0,.2h.9v-.62h-1.2a.26.26,0,0,1-.15-.07.3.3,0,0,1-.06-.11v0a.06.06,0,0,1,0,0,5.06,5.06,0,0,1,0-.7.26.26,0,0,1,.05-.12.19.19,0,0,1,.11-.07.36.36,0,0,1,.14,0h1.69c.13,0,.19,0,.21.07a.09.09,0,0,1,0,.07v0h0A.11.11,0,0,0,13.49,16.49Zm-2,1.12h0Zm3.95-.14a.35.35,0,0,1-.09.06h-.77l0,.88a1,1,0,0,1-.17.12.79.79,0,0,1-.21.06.62.62,0,0,1-.46-.18h0a.49.49,0,0,0,0-.11V16.6a.21.21,0,0,1,0-.06v0a.09.09,0,0,0,0-.05h0v.05a.17.17,0,0,1,.07-.1.26.26,0,0,1,.18,0c.64,0,.9,0,1.28,0a.21.21,0,0,1,.17.05.17.17,0,0,1,0,.11v.18h0c0,.09,0,.21,0,.36v.06C15.5,17.33,15.5,17.42,15.45,17.47Zm1.82.78a.08.08,0,0,1,0,.09h0l0,0a.17.17,0,0,1-.06,0H15.74a.2.2,0,0,1-.18-.26v-.46l.08-.06c.13-.14.12-.3.11-.55V17c0-.15,0-.26,0-.35v-.06a.17.17,0,0,1,0-.15.08.08,0,0,1,.05-.05l1.33,0a.13.13,0,0,1,.1.13.13.13,0,0,1-.09.1l-1.14,0v.6h1.18a.11.11,0,0,1,.07.09.12.12,0,0,1-.06.13h-.81v.68h.74s.09,0,.12.05v.05Zm2,.19a.16.16,0,0,1-.14.06l-1.52,0a.06.06,0,0,1-.06,0,.1.1,0,0,1,0-.09.22.22,0,0,1,0-.08.06.06,0,0,0,0,0v-1.8a.26.26,0,0,1,.13-.06.32.32,0,0,1,.26.09v.8l.37.31v.59h.86a.18.18,0,0,1,.18.16A.21.21,0,0,1,19.27,18.44Z" transform="translate(-7.28 -7.47)"/><path class="cls-1" d="M13.74,16.45v.05a.09.09,0,0,0,0-.05Z" transform="translate(-7.28 -7.47)"/><path class="cls-1" d="M22.36,16.42a.17.17,0,0,0,0,.07v-.06Z" transform="translate(-7.28 -7.47)"/><path class="cls-1" d="M24,17.76a.41.41,0,0,0,.36-.34.37.37,0,0,0-.09-.3.48.48,0,0,0-.32-.15H23v-.12h1a.42.42,0,0,0,.41-.34.43.43,0,0,0-.09-.3.43.43,0,0,0-.32-.16H22.52a.43.43,0,0,0-.25.07l-.07.06a.46.46,0,0,0-.25-.1l-1.59,0a.72.72,0,0,0-.27.09,1,1,0,0,0-.28.22l0,0,0,2,0,0a.87.87,0,0,0,.66.33,1,1,0,0,0,.72-.33l0,0v-.63h.19l0,.67a.49.49,0,0,0,.47.36h0a.46.46,0,0,0,.32-.13.38.38,0,0,0,.28.12h0l1.35,0a.4.4,0,0,0,.33-.67.46.46,0,0,0-.34-.16h-.49v-.13Zm-1.86.6a.25.25,0,0,1-.24.16.25.25,0,0,1-.22-.15l0-.88-.69,0,0,.78a.65.65,0,0,1-.47.21h0a.61.61,0,0,1-.45-.2l0-1.79a.46.46,0,0,1,.18-.13l.17-.06,1.55,0a.21.21,0,0,1,.13.05.27.27,0,0,1,.06.1Zm1.74-.22a.21.21,0,0,1,.15.07.15.15,0,0,1,0,.12.18.18,0,0,1-.18.14l-1.37,0a.13.13,0,0,1-.11,0,.1.1,0,0,1,0-.08h0v-1.9a.17.17,0,0,1,0-.07.13.13,0,0,1,.05-.09.18.18,0,0,1,.1,0h1.42a.18.18,0,0,1,.13.06.17.17,0,0,1,0,.11.16.16,0,0,1-.16.13H22.71v.61h1.22a.17.17,0,0,1,.14.07.13.13,0,0,1,0,.1.18.18,0,0,1-.14.12h-.83l0,.62Z" transform="translate(-7.28 -7.47)"/><polygon class="cls-1" points="14.4 9.18 14.39 9.72 13.24 9.75 13.26 9.18 14.4 9.18"/><polygon class="cls-1" points="7.75 9.18 7.75 9.75 6.89 9.74 6.89 9.18 7.75 9.18"/><path class="cls-1" d="M14.21,18.82" transform="translate(-7.28 -7.47)"/></svg>