<svg id="Capa_1" data-name="Capa 1" xmlns="http://www.w3.org/2000/svg" viewBox="0 0 30.93 22.72"><defs><style>.cls-1{fill:#009640;}</style></defs><path class="cls-1" d="M16,4.92C7.49,4.92.54,10,.54,16.27c0,5.42,5.15,9.93,12,11.07a15.6,15.6,0,0,0,2.91.27,1.11,1.11,0,0,0,.36,0H16a14.17,14.17,0,0,0,2-.13h.14c7.53-.75,13.35-5.5,13.35-11.25C31.46,10,24.54,4.92,16,4.92Zm0,21.22c-7.76,0-14.08-4.42-14.08-9.87S8.24,6.43,16,6.43s14.11,4.45,14.11,9.84S23.79,26.14,16,26.14Z" transform="translate(-0.54 -4.92)"/><path class="cls-1" d="M28.8,17.69a9.21,9.21,0,0,1-.47,1.54c-1.68,3.72-6,4.94-7.77,5.32l-.42.06v-.44c0-.26-.05-2.56-.05-2.56v-.35h.33a8.4,8.4,0,0,0,5-1.8,4.31,4.31,0,0,0,1.26-1.6,4.13,4.13,0,0,0,0-3,4.66,4.66,0,0,0-1.79-2.32A5.64,5.64,0,0,0,22,11.44l-.47,0-9.12,9.36,1.46,0L22,12.55h.19a3.73,3.73,0,0,1,2.67,1.13,3.48,3.48,0,0,1,1.07,2.59,3.75,3.75,0,0,1-1,2.23C23,20.74,19.79,20.71,19,20.68v4.19l-.3.06c-.14,0-.3,0-.47,0h-1v-.35c0-.24,0-1.63,0-2.71V20.77l.08-.12S20,18,20.45,17.46l.11-.09.13,0a1.27,1.27,0,0,0,.47-.09,1,1,0,0,0,.69-.69.9.9,0,0,0-.33-.9.78.78,0,0,0-.63-.15.77.77,0,0,0-.55.18,1,1,0,0,0-.36.61l-.08.34s0,.06-.06.06c-1.15,1.19-2.28,2.39-3.43,3.55V25l-.3,0c-.39,0-.77.06-1.13.06a14.44,14.44,0,0,1-9.64-3.66,6.88,6.88,0,0,1-2.23-6.07c.58-4.22,4.76-6.86,8.44-7.56L12,7.72,11.85,11h-.47a7.12,7.12,0,0,0-5,2.23A5.06,5.06,0,0,0,5,17a3.67,3.67,0,0,0,1,2.3,6,6,0,0,0,4.12,1.77c1.26-1.31,6.7-6.86,9.48-9.68l-1.1,0L10.15,19.9H10a4.31,4.31,0,0,1-3.22-1.66,3.25,3.25,0,0,1-.63-2.67,4.2,4.2,0,0,1,2.91-3.11A8.15,8.15,0,0,1,12.78,12c0-.64,0-4.27,0-4.33V7.35h1.62V12l-.08.11c-.52.5-2.42,2.41-2.86,2.85l-.14.12-.16,0a1,1,0,0,0-.72.11A1.08,1.08,0,0,0,10,16a1.11,1.11,0,0,0,.54.82,1.14,1.14,0,0,0,1.08-.15,1.38,1.38,0,0,0,.46-.84v-.12l.09-.08C12.75,15,15,12.55,15.56,12V7.55h.16V7.4a17.26,17.26,0,0,1,6.7,1.08C26.21,9.9,29.65,13.3,28.8,17.69Z" transform="translate(-0.54 -4.92)"/></svg>